<mxfile host="app.diagrams.net" modified="2021-12-25T18:40:27.767Z" agent="5.0 (Windows)" etag="15jMYcmW6k2LKY9gjnj_" version="16.0.3" type="github">
  <diagram id="4Ck7h0LWlCb0peAkXf6f" name="Page-1">
    <mxGraphModel dx="1744" dy="3100" grid="1" gridSize="10" guides="1" tooltips="1" connect="1" arrows="1" fold="1" page="1" pageScale="1" pageWidth="850" pageHeight="1100" math="0" shadow="0">
      <root>
        <mxCell id="0" />
        <mxCell id="1" parent="0" />
        <mxCell id="DPL5BXDFKyxd1ysktqcM-1" value="" style="ellipse;whiteSpace=wrap;html=1;aspect=fixed;" vertex="1" parent="1">
          <mxGeometry x="60" y="-1940" width="80" height="80" as="geometry" />
        </mxCell>
      </root>
    </mxGraphModel>
  </diagram>
</mxfile>
